<svg xmlns="http://www.w3.org/2000/svg" style="display:none">
  <!-- Pictogrammes dessinés pour ELIEL POSTER : trait 1.6, grille 24. -->
  <symbol id="i-identity" viewBox="0 0 24 24"><circle cx="12" cy="12" r="9"/><path d="M8 12.5a4 4 0 0 1 8 0V14M12 12v5.5M9.5 16.5c0-1 .2-2.6.2-4"/></symbol>
  <symbol id="i-compass" viewBox="0 0 24 24"><circle cx="12" cy="12" r="9"/><path d="M15.6 8.4l-2.1 5.1-5.1 2.1 2.1-5.1z"/></symbol>
  <symbol id="i-monitor" viewBox="0 0 24 24"><rect x="3" y="4" width="18" height="12" rx="2"/><path d="M9 20h6M12 16v4"/></symbol>
  <symbol id="i-motion" viewBox="0 0 24 24"><path d="M6 4.5l11 7.5-11 7.5z"/><path d="M20.5 6v12"/></symbol>
  <symbol id="i-megaphone" viewBox="0 0 24 24"><path d="M4 10v4l3 .6V9.4zM7 9.4L18 5v14L7 14.6M9.5 15.2V18a1.6 1.6 0 0 0 3.2 0v-1.6M21 10.5v3"/></symbol>
  <symbol id="i-poster" viewBox="0 0 24 24"><rect x="5.5" y="3" width="13" height="18" rx="1.6"/><path d="M9 8h6M9 12h6M9 16h3"/></symbol>
  <symbol id="i-browser" viewBox="0 0 24 24"><rect x="3" y="4" width="18" height="16" rx="2.2"/><path d="M3 9h18M6.5 6.5h.01M9.5 6.5h.01"/></symbol>
  <symbol id="i-layers" viewBox="0 0 24 24"><path d="M12 3l9 5-9 5-9-5zM3 12.5l9 5 9-5M3 16.5l9 5 9-5"/></symbol>
  <symbol id="i-shapes" viewBox="0 0 24 24"><circle cx="7.5" cy="16.5" r="4.5"/><rect x="13.5" y="12.5" width="7.5" height="8.5" rx="1.2"/><path d="M12 3l4.4 7H7.6z"/></symbol>
  <symbol id="i-palette" viewBox="0 0 24 24"><path d="M12 3a9 9 0 1 0 0 18c1.2 0 1.9-.8 1.9-1.8 0-1.4-1-1.8-1-3 0-1 .8-1.7 1.8-1.7H17a4 4 0 0 0 4-4C21 6.3 17 3 12 3z"/><path d="M7.5 12.5h.01M9.5 8.3h.01M14.2 7.3h.01"/></symbol>
  <symbol id="i-grid" viewBox="0 0 24 24"><rect x="3.5" y="3.5" width="7" height="7" rx="1.6"/><rect x="13.5" y="3.5" width="7" height="7" rx="1.6"/><rect x="3.5" y="13.5" width="7" height="7" rx="1.6"/><rect x="13.5" y="13.5" width="7" height="7" rx="1.6"/></symbol>
  <symbol id="i-type" viewBox="0 0 24 24"><path d="M5 6.5V4h14v2.5M12 4v16M9 20h6"/></symbol>
  <symbol id="i-cursor" viewBox="0 0 24 24"><path d="M5 3.5l14.5 6.8-6.2 2-2 6.2z"/></symbol>
  <symbol id="i-book" viewBox="0 0 24 24"><path d="M4 5.2A2.2 2.2 0 0 1 6.2 3H19.5v15.6H6.2A2.2 2.2 0 0 0 4 20.8zM8 7.5h7.5M8 11h5"/></symbol>
  <symbol id="i-search" viewBox="0 0 24 24"><circle cx="11" cy="11" r="6.2"/><path d="M20 20l-4.4-4.4"/></symbol>
  <symbol id="i-hand" viewBox="0 0 24 24"><path d="M8 12.5V6.2a1.5 1.5 0 0 1 3 0V11M11 11V4.6a1.5 1.5 0 0 1 3 0V11M14 11V6.4a1.5 1.5 0 0 1 3 0V14c0 4-2.5 6.6-6 6.6-2.5 0-4-1-5.4-3.4L4.2 14.4a1.5 1.5 0 0 1 2.6-1.5L8 14.6"/></symbol>
  <symbol id="i-moon" viewBox="0 0 24 24"><path d="M20 14.6A8.5 8.5 0 1 1 9.4 4a7 7 0 0 0 10.6 10.6z"/></symbol>
  <symbol id="i-instagram" viewBox="0 0 24 24"><rect x="3.5" y="3.5" width="17" height="17" rx="5"/><circle cx="12" cy="12" r="4"/><path d="M17 7h.01"/></symbol>
  <symbol id="i-linkedin" viewBox="0 0 24 24"><rect x="3.5" y="3.5" width="17" height="17" rx="3.2"/><path d="M8 10.6V16M8 7.8v.01M12 16v-5.4M12 13.2a2.2 2.2 0 0 1 4.4 0V16"/></symbol>
  <symbol id="i-whatsapp" viewBox="0 0 24 24"><path d="M4 20l1.3-4.1A8.5 8.5 0 1 1 8.4 19z"/><path d="M9.4 8.8c0 3.1 2.6 5.7 5.7 5.7l1-1.5-2-1-.9.8c-.9-.5-1.7-1.2-2.1-2.1l.8-.9-1-2z"/></symbol>
  <symbol id="i-mail" viewBox="0 0 24 24"><rect x="3" y="5" width="18" height="14" rx="2.2"/><path d="M3.5 7.5l8.5 6 8.5-6"/></symbol>
  <symbol id="i-phone" viewBox="0 0 24 24"><rect x="7" y="2.5" width="10" height="19" rx="2.4"/><path d="M11 18.5h2"/></symbol>
<symbol id="i-arrow-ur" viewBox="0 0 24 24"><path d="M6 18L18 6M8.5 6H18v9.5"/></symbol><symbol id="i-arrow-r" viewBox="0 0 24 24"><path d="M4 12h16M13.5 5.5L20 12l-6.5 6.5"/></symbol></svg>
